<?xml version="1.0" encoding="UTF-8"?>
<svg width="239px" height="379px" viewBox="0 0 239 379" version="1.1" xmlns="http://www.w3.org/2000/svg" xmlns:xlink="http://www.w3.org/1999/xlink">
    <title>Group 4</title>
    <defs>
        <rect id="path-1" x="0" y="0" width="239" height="379"></rect>
        <path d="M194.040814,49.8744697 C341.555826,-17.6288602 518.721084,-16.4202227 665.64746,52.3473723 C812.578053,121.114967 926.771853,256.001943 971.089943,411.986133 C981.729253,449.427766 985.835372,496.202205 955.852015,521.040801 C931.588046,541.151045 895.311844,537.482147 867.263061,551.856842 C842.35058,564.622548 826.332583,590.952977 820.743066,618.373202 C815.158608,645.791742 818.847285,674.301763 825.361079,701.51802 C836.039182,746.131408 853.657799,795.596203 830.678204,835.305928 C812.707081,866.358809 774.127775,880.427551 738.23191,879.990115 C663.822518,879.083216 600.596378,828.51261 542.834099,781.623545 C485.073507,734.732794 418.775999,686.560921 344.544548,691.782336 C165.220393,704.398859 60.3351468,580.363492 13.2341048,406.971214 C-3.35650613,345.89288 -6.41185017,279.420348 16.0718725,220.253582" id="path-3"></path>
        <path d="M0.17468616,173.087006 C0.17468616,268.471045 77.4959064,345.791591 172.88062,345.791591 L172.88062,345.791591 C268.262635,345.791591 345.587228,268.471045 345.587228,173.087006 L345.587228,173.087006 C345.587228,77.7029669 268.262635,0.380397661 172.88062,0.380397661 L172.88062,0.380397661 C77.4959064,0.380397661 0.17468616,77.7029669 0.17468616,173.087006" id="path-5"></path>
        <path d="M0.17468616,173.087006 C0.17468616,268.471045 77.4959064,345.791591 172.88062,345.791591 L172.88062,345.791591 C268.262635,345.791591 345.587228,268.471045 345.587228,173.087006 L345.587228,173.087006 C345.587228,77.7029669 268.262635,0.380397661 172.88062,0.380397661 L172.88062,0.380397661 C77.4959064,0.380397661 0.17468616,77.7029669 0.17468616,173.087006" id="path-7"></path>
        <path d="M0.17468616,173.087006 C0.17468616,268.471045 77.4959064,345.791591 172.88062,345.791591 L172.88062,345.791591 C268.262635,345.791591 345.587228,268.471045 345.587228,173.087006 L345.587228,173.087006 C345.587228,77.7029669 268.262635,0.380397661 172.88062,0.380397661 L172.88062,0.380397661 C77.4959064,0.380397661 0.17468616,77.7029669 0.17468616,173.087006" id="path-9"></path>
        <path d="M0.17468616,173.087006 C0.17468616,268.471045 77.4959064,345.791591 172.88062,345.791591 L172.88062,345.791591 C268.262635,345.791591 345.587228,268.471045 345.587228,173.087006 L345.587228,173.087006 C345.587228,77.7029669 268.262635,0.380397661 172.88062,0.380397661 L172.88062,0.380397661 C77.4959064,0.380397661 0.17468616,77.7029669 0.17468616,173.087006" id="path-11"></path>
        <path d="M0.17468616,173.087006 C0.17468616,268.471045 77.4959064,345.791591 172.88062,345.791591 L172.88062,345.791591 C268.262635,345.791591 345.587228,268.471045 345.587228,173.087006 L345.587228,173.087006 C345.587228,77.7029669 268.262635,0.380397661 172.88062,0.380397661 L172.88062,0.380397661 C77.4959064,0.380397661 0.17468616,77.7029669 0.17468616,173.087006" id="path-13"></path>
        <path d="M0.17468616,173.087006 C0.17468616,268.471045 77.4959064,345.791591 172.88062,345.791591 L172.88062,345.791591 C268.262635,345.791591 345.587228,268.471045 345.587228,173.087006 L345.587228,173.087006 C345.587228,77.7029669 268.262635,0.380397661 172.88062,0.380397661 L172.88062,0.380397661 C77.4959064,0.380397661 0.17468616,77.7029669 0.17468616,173.087006" id="path-15"></path>
        <path d="M0.17468616,173.087006 C0.17468616,268.471045 77.4959064,345.791591 172.88062,345.791591 L172.88062,345.791591 C268.262635,345.791591 345.587228,268.471045 345.587228,173.087006 L345.587228,173.087006 C345.587228,77.7029669 268.262635,0.380397661 172.88062,0.380397661 L172.88062,0.380397661 C77.4959064,0.380397661 0.17468616,77.7029669 0.17468616,173.087006" id="path-17"></path>
        <path d="M0.17468616,173.087006 C0.17468616,268.471045 77.4959064,345.791591 172.88062,345.791591 L172.88062,345.791591 C268.262635,345.791591 345.587228,268.471045 345.587228,173.087006 L345.587228,173.087006 C345.587228,77.7029669 268.262635,0.380397661 172.88062,0.380397661 L172.88062,0.380397661 C77.4959064,0.380397661 0.17468616,77.7029669 0.17468616,173.087006" id="path-19"></path>
        <path d="M0.17468616,173.087006 C0.17468616,268.471045 77.4959064,345.791591 172.88062,345.791591 L172.88062,345.791591 C268.262635,345.791591 345.587228,268.471045 345.587228,173.087006 L345.587228,173.087006 C345.587228,77.7029669 268.262635,0.380397661 172.88062,0.380397661 L172.88062,0.380397661 C77.4959064,0.380397661 0.17468616,77.7029669 0.17468616,173.087006" id="path-21"></path>
        <path d="M0.17468616,173.087006 C0.17468616,268.471045 77.4959064,345.791591 172.88062,345.791591 L172.88062,345.791591 C268.262635,345.791591 345.587228,268.471045 345.587228,173.087006 L345.587228,173.087006 C345.587228,77.7029669 268.262635,0.380397661 172.88062,0.380397661 L172.88062,0.380397661 C77.4959064,0.380397661 0.17468616,77.7029669 0.17468616,173.087006" id="path-23"></path>
        <path d="M0.17468616,173.087006 C0.17468616,268.471045 77.4959064,345.791591 172.88062,345.791591 L172.88062,345.791591 C268.262635,345.791591 345.587228,268.471045 345.587228,173.087006 L345.587228,173.087006 C345.587228,77.7029669 268.262635,0.380397661 172.88062,0.380397661 L172.88062,0.380397661 C77.4959064,0.380397661 0.17468616,77.7029669 0.17468616,173.087006" id="path-25"></path>
        <path d="M0.17468616,173.087006 C0.17468616,268.471045 77.4959064,345.791591 172.88062,345.791591 L172.88062,345.791591 C268.262635,345.791591 345.587228,268.471045 345.587228,173.087006 L345.587228,173.087006 C345.587228,77.7029669 268.262635,0.380397661 172.88062,0.380397661 L172.88062,0.380397661 C77.4959064,0.380397661 0.17468616,77.7029669 0.17468616,173.087006" id="path-27"></path>
        <path d="M0.17468616,173.087006 C0.17468616,268.471045 77.4959064,345.791591 172.88062,345.791591 L172.88062,345.791591 C268.262635,345.791591 345.587228,268.471045 345.587228,173.087006 L345.587228,173.087006 C345.587228,77.7029669 268.262635,0.380397661 172.88062,0.380397661 L172.88062,0.380397661 C77.4959064,0.380397661 0.17468616,77.7029669 0.17468616,173.087006" id="path-29"></path>
        <path d="M0.17468616,173.087006 C0.17468616,268.471045 77.4959064,345.791591 172.88062,345.791591 L172.88062,345.791591 C268.262635,345.791591 345.587228,268.471045 345.587228,173.087006 L345.587228,173.087006 C345.587228,77.7029669 268.262635,0.380397661 172.88062,0.380397661 L172.88062,0.380397661 C77.4959064,0.380397661 0.17468616,77.7029669 0.17468616,173.087006" id="path-31"></path>
        <path d="M0.17468616,173.087006 C0.17468616,268.471045 77.4959064,345.791591 172.88062,345.791591 L172.88062,345.791591 C268.262635,345.791591 345.587228,268.471045 345.587228,173.087006 L345.587228,173.087006 C345.587228,77.7029669 268.262635,0.380397661 172.88062,0.380397661 L172.88062,0.380397661 C77.4959064,0.380397661 0.17468616,77.7029669 0.17468616,173.087006" id="path-33"></path>
        <path d="M0.17468616,173.087006 C0.17468616,268.471045 77.4959064,345.791591 172.88062,345.791591 L172.88062,345.791591 C268.262635,345.791591 345.587228,268.471045 345.587228,173.087006 L345.587228,173.087006 C345.587228,77.7029669 268.262635,0.380397661 172.88062,0.380397661 L172.88062,0.380397661 C77.4959064,0.380397661 0.17468616,77.7029669 0.17468616,173.087006" id="path-35"></path>
        <path d="M0.17468616,173.087006 C0.17468616,268.471045 77.4959064,345.791591 172.88062,345.791591 L172.88062,345.791591 C268.262635,345.791591 345.587228,268.471045 345.587228,173.087006 L345.587228,173.087006 C345.587228,77.7029669 268.262635,0.380397661 172.88062,0.380397661 L172.88062,0.380397661 C77.4959064,0.380397661 0.17468616,77.7029669 0.17468616,173.087006" id="path-37"></path>
        <path d="M0.17468616,173.087006 C0.17468616,268.471045 77.4959064,345.791591 172.88062,345.791591 L172.88062,345.791591 C268.262635,345.791591 345.587228,268.471045 345.587228,173.087006 L345.587228,173.087006 C345.587228,77.7029669 268.262635,0.380397661 172.88062,0.380397661 L172.88062,0.380397661 C77.4959064,0.380397661 0.17468616,77.7029669 0.17468616,173.087006" id="path-39"></path>
        <path d="M0.17468616,173.087006 C0.17468616,268.471045 77.4959064,345.791591 172.88062,345.791591 L172.88062,345.791591 C268.262635,345.791591 345.587228,268.471045 345.587228,173.087006 L345.587228,173.087006 C345.587228,77.7029669 268.262635,0.380397661 172.88062,0.380397661 L172.88062,0.380397661 C77.4959064,0.380397661 0.17468616,77.7029669 0.17468616,173.087006" id="path-41"></path>
        <path d="M0.17468616,173.087006 C0.17468616,268.471045 77.4959064,345.791591 172.88062,345.791591 L172.88062,345.791591 C268.262635,345.791591 345.587228,268.471045 345.587228,173.087006 L345.587228,173.087006 C345.587228,77.7029669 268.262635,0.380397661 172.88062,0.380397661 L172.88062,0.380397661 C77.4959064,0.380397661 0.17468616,77.7029669 0.17468616,173.087006" id="path-43"></path>
        <path d="M0.17468616,173.087006 C0.17468616,268.471045 77.4959064,345.791591 172.88062,345.791591 L172.88062,345.791591 C268.262635,345.791591 345.587228,268.471045 345.587228,173.087006 L345.587228,173.087006 C345.587228,77.7029669 268.262635,0.380397661 172.88062,0.380397661 L172.88062,0.380397661 C77.4959064,0.380397661 0.17468616,77.7029669 0.17468616,173.087006" id="path-45"></path>
        <path d="M0.17468616,173.087006 C0.17468616,268.471045 77.4959064,345.791591 172.88062,345.791591 L172.88062,345.791591 C268.262635,345.791591 345.587228,268.471045 345.587228,173.087006 L345.587228,173.087006 C345.587228,77.7029669 268.262635,0.380397661 172.88062,0.380397661 L172.88062,0.380397661 C77.4959064,0.380397661 0.17468616,77.7029669 0.17468616,173.087006" id="path-47"></path>
        <path d="M0.17468616,173.087006 C0.17468616,268.471045 77.4959064,345.791591 172.88062,345.791591 L172.88062,345.791591 C268.262635,345.791591 345.587228,268.471045 345.587228,173.087006 L345.587228,173.087006 C345.587228,77.7029669 268.262635,0.380397661 172.88062,0.380397661 L172.88062,0.380397661 C77.4959064,0.380397661 0.17468616,77.7029669 0.17468616,173.087006" id="path-49"></path>
        <path d="M0.17468616,173.087006 C0.17468616,268.471045 77.4959064,345.791591 172.88062,345.791591 L172.88062,345.791591 C268.262635,345.791591 345.587228,268.471045 345.587228,173.087006 L345.587228,173.087006 C345.587228,77.7029669 268.262635,0.380397661 172.88062,0.380397661 L172.88062,0.380397661 C77.4959064,0.380397661 0.17468616,77.7029669 0.17468616,173.087006" id="path-51"></path>
        <path d="M0.17468616,173.087006 C0.17468616,268.471045 77.4959064,345.791591 172.88062,345.791591 L172.88062,345.791591 C268.262635,345.791591 345.587228,268.471045 345.587228,173.087006 L345.587228,173.087006 C345.587228,77.7029669 268.262635,0.380397661 172.88062,0.380397661 L172.88062,0.380397661 C77.4959064,0.380397661 0.17468616,77.7029669 0.17468616,173.087006" id="path-53"></path>
        <path d="M0.17468616,173.087006 C0.17468616,268.471045 77.4959064,345.791591 172.88062,345.791591 L172.88062,345.791591 C268.262635,345.791591 345.587228,268.471045 345.587228,173.087006 L345.587228,173.087006 C345.587228,77.7029669 268.262635,0.380397661 172.88062,0.380397661 L172.88062,0.380397661 C77.4959064,0.380397661 0.17468616,77.7029669 0.17468616,173.087006" id="path-55"></path>
        <path d="M0.17468616,173.087006 C0.17468616,268.471045 77.4959064,345.791591 172.88062,345.791591 L172.88062,345.791591 C268.262635,345.791591 345.587228,268.471045 345.587228,173.087006 L345.587228,173.087006 C345.587228,77.7029669 268.262635,0.380397661 172.88062,0.380397661 L172.88062,0.380397661 C77.4959064,0.380397661 0.17468616,77.7029669 0.17468616,173.087006" id="path-57"></path>
        <path d="M0.17468616,173.087006 C0.17468616,268.471045 77.4959064,345.791591 172.88062,345.791591 L172.88062,345.791591 C268.262635,345.791591 345.587228,268.471045 345.587228,173.087006 L345.587228,173.087006 C345.587228,77.7029669 268.262635,0.380397661 172.88062,0.380397661 L172.88062,0.380397661 C77.4959064,0.380397661 0.17468616,77.7029669 0.17468616,173.087006" id="path-59"></path>
    </defs>
    <g id="Landing-Pages" stroke="none" stroke-width="1" fill="none" fill-rule="evenodd">
        <g id="1.-Gated" transform="translate(0.000000, -1636.000000)">
            <g id="Group-4" transform="translate(0.000000, 1636.000000)">
                <mask id="mask-2" fill="white">
                    <use xlink:href="#path-1"></use>
                </mask>
                <g id="Mask"></g>
                <g mask="url(#mask-2)">
                    <g transform="translate(-753.000000, -422.000000)">
                        <g id="Group-3">
                            <mask id="mask-4" fill="white">
                                <use xlink:href="#path-3"></use>
                            </mask>
                            <g id="Clip-2"></g>
                            <path d="M752.880957,801 C802.42447,800.703045 831.938197,800.554568 841.422138,800.554568 C860.414496,800.554568 833.096113,733.83519 825.361079,701.51802 C818.847285,674.301763 815.158608,645.791742 820.743066,618.373202 C826.332583,590.952977 842.35058,564.622548 867.263061,551.856842 C895.311844,537.482147 931.588046,541.151045 955.852015,521.040801 C981.565617,499.739325 982.207411,462.304681 975.158153,428.459148 C974.377798,424.712437 974.32508,422.559388 975,422 L752.880957,422 L752.880957,801 Z" id="Fill-1" fill-opacity="0.0493607955" fill="#000000" mask="url(#mask-4)"></path>
                        </g>
                        <g id="Group-85" opacity="0.5" transform="translate(580.000000, 439.000000)">
                            <g id="Group-3">
                                <mask id="mask-6" fill="white">
                                    <use xlink:href="#path-5"></use>
                                </mask>
                                <g id="Clip-2"></g>
                            </g>
                            <g id="Group-6">
                                <mask id="mask-8" fill="white">
                                    <use xlink:href="#path-7"></use>
                                </mask>
                                <g id="Clip-5"></g>
                            </g>
                            <g id="Group-9">
                                <mask id="mask-10" fill="white">
                                    <use xlink:href="#path-9"></use>
                                </mask>
                                <g id="Clip-8"></g>
                            </g>
                            <g id="Group-12">
                                <mask id="mask-12" fill="white">
                                    <use xlink:href="#path-11"></use>
                                </mask>
                                <g id="Clip-11"></g>
                            </g>
                            <g id="Group-15">
                                <mask id="mask-14" fill="white">
                                    <use xlink:href="#path-13"></use>
                                </mask>
                                <g id="Clip-14"></g>
                            </g>
                            <g id="Group-18">
                                <mask id="mask-16" fill="white">
                                    <use xlink:href="#path-15"></use>
                                </mask>
                                <g id="Clip-17"></g>
                            </g>
                            <g id="Group-21">
                                <mask id="mask-18" fill="white">
                                    <use xlink:href="#path-17"></use>
                                </mask>
                                <g id="Clip-20"></g>
                            </g>
                            <g id="Group-24">
                                <mask id="mask-20" fill="white">
                                    <use xlink:href="#path-19"></use>
                                </mask>
                                <g id="Clip-23"></g>
                            </g>
                            <g id="Group-27">
                                <mask id="mask-22" fill="white">
                                    <use xlink:href="#path-21"></use>
                                </mask>
                                <g id="Clip-26"></g>
                                <line x1="-163.346263" y1="345.792063" x2="182.066954" y2="0.380869786" id="Stroke-25" stroke="#FFFFFF" stroke-width="0.872" mask="url(#mask-22)"></line>
                            </g>
                            <g id="Group-30">
                                <mask id="mask-24" fill="white">
                                    <use xlink:href="#path-23"></use>
                                </mask>
                                <g id="Clip-29"></g>
                                <line x1="-141.63628" y1="345.792063" x2="203.776262" y2="0.380869786" id="Stroke-28" stroke="#FFFFFF" stroke-width="0.872" mask="url(#mask-24)"></line>
                            </g>
                            <g id="Group-33">
                                <mask id="mask-26" fill="white">
                                    <use xlink:href="#path-25"></use>
                                </mask>
                                <g id="Clip-32"></g>
                                <line x1="-119.927647" y1="345.792063" x2="225.486244" y2="0.380869786" id="Stroke-31" stroke="#FFFFFF" stroke-width="0.872" mask="url(#mask-26)"></line>
                            </g>
                            <g id="Group-36">
                                <mask id="mask-28" fill="white">
                                    <use xlink:href="#path-27"></use>
                                </mask>
                                <g id="Clip-35"></g>
                                <line x1="-98.2163154" y1="345.792063" x2="247.196227" y2="0.380869786" id="Stroke-34" stroke="#FFFFFF" stroke-width="0.872" mask="url(#mask-28)"></line>
                            </g>
                            <g id="Group-39">
                                <mask id="mask-30" fill="white">
                                    <use xlink:href="#path-29"></use>
                                </mask>
                                <g id="Clip-38"></g>
                                <line x1="-76.5083563" y1="345.792063" x2="268.906209" y2="0.380869786" id="Stroke-37" stroke="#FFFFFF" stroke-width="0.872" mask="url(#mask-30)"></line>
                            </g>
                            <g id="Group-42">
                                <mask id="mask-32" fill="white">
                                    <use xlink:href="#path-31"></use>
                                </mask>
                                <g id="Clip-41"></g>
                                <line x1="-54.7983739" y1="345.792063" x2="290.616191" y2="0.380869786" id="Stroke-40" stroke="#FFFFFF" stroke-width="0.872" mask="url(#mask-32)"></line>
                            </g>
                            <g id="Group-45">
                                <mask id="mask-34" fill="white">
                                    <use xlink:href="#path-33"></use>
                                </mask>
                                <g id="Clip-44"></g>
                                <line x1="-33.0883914" y1="345.792063" x2="312.325499" y2="0.380869786" id="Stroke-43" stroke="#FFFFFF" stroke-width="0.872" mask="url(#mask-34)"></line>
                            </g>
                            <g id="Group-48">
                                <mask id="mask-36" fill="white">
                                    <use xlink:href="#path-35"></use>
                                </mask>
                                <g id="Clip-47"></g>
                                <line x1="-11.3790834" y1="345.792063" x2="334.035482" y2="0.380869786" id="Stroke-46" stroke="#FFFFFF" stroke-width="0.872" mask="url(#mask-36)"></line>
                            </g>
                            <g id="Group-51">
                                <mask id="mask-38" fill="white">
                                    <use xlink:href="#path-37"></use>
                                </mask>
                                <g id="Clip-50"></g>
                                <line x1="10.3308316" y1="345.792063" x2="355.745397" y2="0.380869786" id="Stroke-49" stroke="#FFFFFF" stroke-width="0.872" mask="url(#mask-38)"></line>
                            </g>
                            <g id="Group-54">
                                <mask id="mask-40" fill="white">
                                    <use xlink:href="#path-39"></use>
                                </mask>
                                <g id="Clip-53"></g>
                                <line x1="32.040814" y1="345.792063" x2="377.454705" y2="0.380869786" id="Stroke-52" stroke="#FFFFFF" stroke-width="0.872" mask="url(#mask-40)"></line>
                            </g>
                            <g id="Group-57">
                                <mask id="mask-42" fill="white">
                                    <use xlink:href="#path-41"></use>
                                </mask>
                                <g id="Clip-56"></g>
                                <line x1="53.750122" y1="345.792063" x2="399.164687" y2="0.380869786" id="Stroke-55" stroke="#FFFFFF" stroke-width="0.872" mask="url(#mask-42)"></line>
                            </g>
                            <g id="Group-60">
                                <mask id="mask-44" fill="white">
                                    <use xlink:href="#path-43"></use>
                                </mask>
                                <g id="Clip-59"></g>
                                <line x1="75.4601045" y1="345.792063" x2="420.87467" y2="0.380869786" id="Stroke-58" stroke="#FFFFFF" stroke-width="0.872" mask="url(#mask-44)"></line>
                            </g>
                            <g id="Group-63">
                                <mask id="mask-46" fill="white">
                                    <use xlink:href="#path-45"></use>
                                </mask>
                                <g id="Clip-62"></g>
                                <line x1="97.1700869" y1="345.792063" x2="442.582629" y2="0.380869786" id="Stroke-61" stroke="#FFFFFF" stroke-width="0.872" mask="url(#mask-46)"></line>
                            </g>
                            <g id="Group-66">
                                <mask id="mask-48" fill="white">
                                    <use xlink:href="#path-47"></use>
                                </mask>
                                <g id="Clip-65"></g>
                                <line x1="118.880002" y1="345.792063" x2="464.292544" y2="0.380869786" id="Stroke-64" stroke="#FFFFFF" stroke-width="0.872" mask="url(#mask-48)"></line>
                            </g>
                            <g id="Group-69">
                                <mask id="mask-50" fill="white">
                                    <use xlink:href="#path-49"></use>
                                </mask>
                                <g id="Clip-68"></g>
                                <line x1="140.58931" y1="345.792063" x2="486.002526" y2="0.380869786" id="Stroke-67" stroke="#FFFFFF" stroke-width="0.872" mask="url(#mask-50)"></line>
                            </g>
                            <g id="Group-72">
                                <mask id="mask-52" fill="white">
                                    <use xlink:href="#path-51"></use>
                                </mask>
                                <g id="Clip-71"></g>
                                <line x1="162.299292" y1="345.792063" x2="507.711834" y2="0.380869786" id="Stroke-70" stroke="#FFFFFF" stroke-width="0.872" mask="url(#mask-52)"></line>
                            </g>
                            <g id="Group-75">
                                <mask id="mask-54" fill="white">
                                    <use xlink:href="#path-53"></use>
                                </mask>
                                <g id="Clip-74"></g>
                                <line x1="184.009275" y1="345.792063" x2="529.421817" y2="0.380869786" id="Stroke-73" stroke="#FFFFFF" stroke-width="0.872" mask="url(#mask-54)"></line>
                            </g>
                            <g id="Group-78">
                                <mask id="mask-56" fill="white">
                                    <use xlink:href="#path-55"></use>
                                </mask>
                                <g id="Clip-77"></g>
                                <line x1="205.719257" y1="345.792063" x2="551.131799" y2="0.380869786" id="Stroke-76" stroke="#FFFFFF" stroke-width="0.872" mask="url(#mask-56)"></line>
                            </g>
                            <g id="Group-81">
                                <mask id="mask-58" fill="white">
                                    <use xlink:href="#path-57"></use>
                                </mask>
                                <g id="Clip-80"></g>
                                <line x1="227.428565" y1="345.792063" x2="572.841782" y2="0.380869786" id="Stroke-79" stroke="#FFFFFF" stroke-width="0.872" mask="url(#mask-58)"></line>
                            </g>
                            <g id="Group-84">
                                <mask id="mask-60" fill="white">
                                    <use xlink:href="#path-59"></use>
                                </mask>
                                <g id="Clip-83"></g>
                                <line x1="249.138548" y1="345.792063" x2="594.551764" y2="0.380869786" id="Stroke-82" stroke="#FFFFFF" stroke-width="0.872" mask="url(#mask-60)"></line>
                            </g>
                        </g>
                    </g>
                </g>
            </g>
        </g>
    </g>
</svg>