<?xml version="1.0" encoding="UTF-8"?>
<svg width="277px" height="380px" viewBox="0 0 277 380" version="1.1" xmlns="http://www.w3.org/2000/svg" xmlns:xlink="http://www.w3.org/1999/xlink">
    <title>Group 5</title>
    <defs>
        <rect id="path-1" x="0" y="0" width="277" height="380"></rect>
        <path d="M160.346263,41.2600335 C282.246542,-14.5836128 428.647018,-13.5844375 550.060874,43.3057978 C671.476821,100.195336 765.841294,211.783617 802.463713,340.824346 C811.255547,371.799475 814.647957,410.493984 789.871795,431.043664 C769.821174,447.679618 739.844199,444.644441 716.665982,456.53623 C696.07946,467.096947 682.842928,488.879386 678.22401,511.563383 C673.609273,534.245986 676.658122,557.831542 682.040123,580.346802 C690.864013,617.25423 705.423223,658.175093 686.433949,691.025855 C671.583444,716.715745 639.703291,728.353034 610.041305,727.991853 C548.55213,727.2416 496.305669,685.40593 448.573595,646.6152 C400.842914,607.82447 346.057023,567.973206 284.715586,572.292738 C136.530401,582.730041 49.8580861,480.118997 10.9359641,336.675642 C-2.77374922,286.147915 -5.29854418,231.156321 13.281661,182.209982" id="path-3"></path>
        <path d="M430.729123,10.8474373 L446.269616,30.0873902 C469.106163,44.0549785 489.405065,63.3537589 500.519367,87.7330589 C511.633295,112.111235 512.514718,141.934136 499.025139,165.079933 C487.236302,185.306838 466.484717,198.218155 448.323151,212.970359 C414.933106,240.093567 388.498292,275.732519 372.213303,315.581568 C358.049564,350.244808 351.595651,387.514817 340.525495,423.291657 C329.454591,459.065125 312.659679,494.770023 283.17655,517.812778 C246.082361,546.804975 195.94978,550.856576 148.983362,553.756358 C113.48778,555.949461 75.2192342,557.457617 45.3776999,538.082399 C17.0326382,519.678395 2.17303934,485.135059 0.251942631,451.356104 C-1.67027643,417.579023 7.68118088,384.192002 18.9458784,352.294777 C64.5838034,223.043345 147.131477,102.733313 265.893788,34.5646473" id="path-5"></path>
    </defs>
    <g id="Landing-Pages" stroke="none" stroke-width="1" fill="none" fill-rule="evenodd">
        <g id="1.-Gated" transform="translate(-923.000000, -1639.000000)">
            <g id="Group-5" transform="translate(923.000000, 1639.000000)">
                <mask id="mask-2" fill="white">
                    <use xlink:href="#path-1"></use>
                </mask>
                <g id="Mask"></g>
                <g mask="url(#mask-2)" id="Group-3">
                    <g transform="translate(-20.000000, -387.000000)">
                        <g>
                            <mask id="mask-4" fill="white">
                                <use xlink:href="#path-3"></use>
                            </mask>
                            <g id="Clip-2"></g>
                            <path d="M448.573595,646.6152 C496.305669,685.40593 548.55213,727.2416 610.041305,727.991853 C639.703291,728.353034 671.583444,716.715745 686.433949,691.025855 C705.423223,658.175093 690.864013,617.25423 682.040123,580.346802 C676.658122,557.831542 673.609273,534.245986 678.22401,511.563383 C682.842928,488.879386 696.07946,467.096947 716.665982,456.53623 C739.844199,444.644441 769.821174,447.679618 789.871795,431.043664 C814.647957,410.493984 811.255547,371.799475 802.463713,340.824346 C765.841294,211.783617 671.476821,100.195336 550.060874,43.3057978 C428.647018,-13.5844375 282.246542,-14.5836128 160.346263,41.2600335 C97.0215068,70.2723731 38.0097383,117.062781 13.281661,182.209982 C-5.29854418,231.156321 -2.77374922,286.147915 10.9359641,336.675642 C49.8580861,480.118997 136.530401,582.730041 284.715586,572.292738 C346.057023,567.973206 400.842914,607.82447 448.573595,646.6152 Z" id="Fill-1" fill-opacity="0.0271798514" fill="#000000" mask="url(#mask-4)"></path>
                        </g>
                        <g transform="translate(167.000000, 227.000000)">
                            <mask id="mask-6" fill="white">
                                <use xlink:href="#path-5"></use>
                            </mask>
                            <g id="Clip-2"></g>
                            <path d="M446.269616,30.0873902 C469.106163,44.0549785 489.405065,63.3537589 500.519367,87.7330589 C511.633295,112.111235 512.514718,141.934136 499.025139,165.079933 C487.236302,185.306838 466.484717,198.218155 448.323151,212.970359 C414.933106,240.093567 388.498292,275.732519 372.213303,315.581568 C358.049564,350.244808 351.595651,387.514817 340.525495,423.291657 C329.454591,459.065125 312.659679,494.770023 283.17655,517.812778 C246.082361,546.804975 195.94978,550.856576 148.983362,553.756358 C113.48778,555.949461 75.2192342,557.457617 45.3776999,538.082399 C17.0326382,519.678395 2.17303934,485.135059 0.251942631,451.356104 C-1.67027643,417.579023 7.68118088,384.192002 18.9458784,352.294777 C64.5838034,223.043345 147.131477,102.733313 265.893788,34.5646473 C315.938076,5.83661131 378.182358,-12.9810578 430.729123,10.8474373" id="Fill-1" fill-opacity="0.06" fill="#000000" mask="url(#mask-6)"></path>
                        </g>
                    </g>
                </g>
            </g>
        </g>
    </g>
</svg>